<?xml version="1.0" encoding="UTF-8" standalone="no"?>
<svg
   xmlns:dc="http://purl.org/dc/elements/1.1/"
   xmlns:cc="http://creativecommons.org/ns#"
   xmlns:rdf="http://www.w3.org/1999/02/22-rdf-syntax-ns#"
   xmlns:svg="http://www.w3.org/2000/svg"
   xmlns="http://www.w3.org/2000/svg"
   id="svg910"
   version="1.1"
   viewBox="0 0 12.645454 7.5009375"
   height="7.5009375mm"
   width="12.645454mm">
  <defs
     id="defs904" />
  <metadata
     id="metadata907">
    <rdf:RDF>
      <cc:Work
         rdf:about="">
        <dc:format>image/svg+xml</dc:format>
        <dc:type
           rdf:resource="http://purl.org/dc/dcmitype/StillImage" />
        <dc:title></dc:title>
      </cc:Work>
    </rdf:RDF>
  </metadata>
  <g
     transform="translate(-67.7606,-118.62453)"
     id="layer1">
    <rect
       style="stroke-width:0.26458332"
       id="rect44"
       height="7.5009375"
       width="0.25664583"
       y="118.62453"
       x="73.007317" />
    <path
       style="stroke-width:0.26458332"
       id="path46"
       d="m 69.15231,121.11956 c 0.12171,-0.17198 0.39952,-0.70909 1.21708,-0.70909 0.57415,0 0.88107,0.23019 1.00278,0.34396 0.35189,0.34396 0.37306,0.83873 0.37306,1.11654 v 2.38125 H 70.2715 v -2.09285 c 0,-0.0423 -0.008,-0.53181 -0.50006,-0.53181 -0.52123,0 -0.53711,0.47889 -0.53711,0.60854 v 2.01612 H 67.7606 v -3.7465 h 1.39436 v 0.61384 z" />
    <path
       style="stroke-width:0.26458332"
       id="path48"
       d="m 79.80444,120.41841 c -0.27517,0 -0.50007,0.2249 -0.50007,0.50006 0,0.27517 0.2249,0.50006 0.50007,0.50006 0.254,0 0.36512,-0.18256 0.36777,-0.17462 0.14287,0.43656 -0.61648,2.7014 -1.65365,2.7014 -0.33602,0 -0.43921,-0.27253 -0.43921,-0.62442 0,-0.4154 0.11907,-0.84138 0.27252,-1.41552 0.15875,-0.56886 0.30427,-1.11125 0.38365,-1.40229 h -1.00013 c -0.13758,0.49212 -1.11389,3.37079 -1.94468,3.37079 -0.10319,0 -0.21696,-0.11113 -0.21696,-0.31221 0,-0.11113 0.0952,-0.50271 0.14287,-0.64823 l 0.32809,-1.11919 c 0.0714,-0.23283 0.17462,-0.5371 0.17462,-0.75935 0,-0.39158 -0.27252,-0.61648 -0.59266,-0.61648 -0.90488,0 -1.28059,0.80698 -1.4658,1.13506 l 0.15346,0.0952 c 0.0873,-0.14287 0.48684,-0.82285 0.75936,-0.82285 0.0397,0 0.0714,0.0476 0.0714,0.19314 0,0.0952 -0.0556,0.31221 -0.11112,0.51065 l -0.34396,1.13506 c -0.0556,0.20902 -0.19315,0.60854 -0.19315,0.89694 0,0.52917 0.39953,0.7911 0.75142,0.7911 1.28323,0 1.8415,-1.5531 2.02406,-2.00025 l 0.0159,0.0159 c -0.0238,0.0873 -0.13494,0.56092 -0.13494,0.79904 0,0.68792 0.30692,1.18269 0.97896,1.18269 1.95527,0.005 3.01625,-3.93171 1.67217,-3.93171 z" />
  </g>
</svg>
