<?xml version="1.0" encoding="UTF-8" standalone="no"?>
<!-- Generator: Adobe Illustrator 24.1.1, SVG Export Plug-In . SVG Version: 6.00 Build 0)  -->

<svg
   xmlns:dc="http://purl.org/dc/elements/1.1/"
   xmlns:cc="http://creativecommons.org/ns#"
   xmlns:rdf="http://www.w3.org/1999/02/22-rdf-syntax-ns#"
   xmlns:svg="http://www.w3.org/2000/svg"
   xmlns="http://www.w3.org/2000/svg"
   xmlns:sodipodi="http://sodipodi.sourceforge.net/DTD/sodipodi-0.dtd"
   xmlns:inkscape="http://www.inkscape.org/namespaces/inkscape"
   version="1.1"
   id="Ebene_1"
   x="0px"
   y="0px"
   viewBox="0 0 296.24999 28.349999"
   xml:space="preserve"
   sodipodi:docname="fhnw_hgk_e_10mm.svg"
   width="296.25"
   height="28.35"
   inkscape:version="0.92.4 (5da689c313, 2019-01-14)"><metadata
   id="metadata171"><rdf:RDF><cc:Work
       rdf:about=""><dc:format>image/svg+xml</dc:format><dc:type
         rdf:resource="http://purl.org/dc/dcmitype/StillImage" /></cc:Work></rdf:RDF></metadata><defs
   id="defs169" /><sodipodi:namedview
   pagecolor="#ffffff"
   bordercolor="#666666"
   borderopacity="1"
   objecttolerance="10"
   gridtolerance="10"
   guidetolerance="10"
   inkscape:pageopacity="0"
   inkscape:pageshadow="2"
   inkscape:window-width="2560"
   inkscape:window-height="1361"
   id="namedview167"
   showgrid="false"
   inkscape:zoom="3.1716166"
   inkscape:cx="119.65452"
   inkscape:cy="-20.3674"
   inkscape:window-x="1911"
   inkscape:window-y="-9"
   inkscape:window-maximized="1"
   inkscape:current-layer="Ebene_1" />
<g
   id="g164"
   transform="translate(-323.41,-283.54999)">
	<path
   d="m 384.45,304.82 2.33,-5.54 h 0.82 l 2.24,5.54 H 389 l -0.6,-1.44 h -2.57 l -0.6,1.44 z m 1.65,-2.1 h 2.06 l -1,-2.68 z"
   id="path2"
   inkscape:connector-curvature="0" />
	<path
   d="m 392.82,302.2 c -0.04,-0.48 -0.27,-0.82 -0.79,-0.82 -0.7,0 -0.97,0.61 -0.97,1.51 0,0.91 0.27,1.51 0.97,1.51 0.48,0 0.78,-0.31 0.82,-0.87 h 0.73 c -0.06,0.87 -0.71,1.4 -1.56,1.4 -1.23,0 -1.73,-0.87 -1.73,-2.01 0,-1.13 0.57,-2.07 1.79,-2.07 0.81,0 1.43,0.51 1.46,1.35 z"
   id="path4"
   inkscape:connector-curvature="0" />
	<path
   d="m 396.84,302.44 c 0,-0.67 -0.04,-1.06 -0.81,-1.06 -0.37,0 -0.71,0.21 -0.72,0.61 h -0.77 c 0.04,-0.84 0.7,-1.14 1.46,-1.14 0.79,0 1.57,0.24 1.57,1.31 V 304 c 0,0.17 0.01,0.49 0.03,0.81 h -0.49 c -0.07,0 -0.2,0.04 -0.21,-0.05 -0.02,-0.18 -0.03,-0.34 -0.04,-0.52 h -0.02 c -0.24,0.48 -0.67,0.69 -1.2,0.69 -0.67,0 -1.34,-0.35 -1.34,-1.1 0,-1.08 0.96,-1.4 1.87,-1.4 h 0.67 z m -0.73,0.51 c -0.44,0.02 -1.04,0.18 -1.04,0.74 0,0.48 0.33,0.71 0.76,0.71 0.86,0 1.02,-0.74 1,-1.46 h -0.72 z"
   id="path6"
   inkscape:connector-curvature="0" />
	<path
   d="m 401.59,299.28 h 0.73 v 4.85 c 0,0.23 0.02,0.46 0.04,0.68 h -0.74 l -0.02,-0.58 v -0.04 h -0.02 c -0.26,0.54 -0.77,0.73 -1.33,0.73 -1.14,0 -1.59,-1.05 -1.59,-2.04 0,-1.04 0.53,-2.04 1.73,-2.04 0.49,0 0.97,0.18 1.2,0.64 h 0.02 v -2.2 z m -1.08,5.15 c 0.88,0 1.09,-0.82 1.09,-1.54 0,-0.7 -0.26,-1.53 -1.09,-1.53 -0.87,0 -1.09,0.81 -1.09,1.53 0,0.72 0.27,1.54 1.09,1.54 z"
   id="path8"
   inkscape:connector-curvature="0" />
	<path
   d="m 404.16,303.03 c -0.05,0.67 0.22,1.37 0.97,1.37 0.57,0 0.85,-0.22 0.94,-0.78 h 0.77 c -0.12,0.87 -0.79,1.31 -1.71,1.31 -1.23,0 -1.73,-0.87 -1.73,-2.01 0,-1.13 0.57,-2.07 1.79,-2.07 1.15,0.02 1.69,0.75 1.69,1.82 v 0.36 z m 1.95,-0.51 c 0.02,-0.64 -0.28,-1.14 -0.98,-1.14 -0.61,0 -0.97,0.51 -0.97,1.14 z"
   id="path10"
   inkscape:connector-curvature="0" />
	<path
   d="m 408.73,301.52 h 0.02 c 0.23,-0.48 0.71,-0.67 1.1,-0.67 0.73,0 1.16,0.25 1.36,0.72 0.28,-0.48 0.71,-0.72 1.28,-0.72 0.89,0 1.43,0.56 1.43,1.25 v 2.71 h -0.73 v -2.28 c 0,-0.53 -0.08,-1.13 -0.93,-1.13 -0.22,0 -0.71,0.12 -0.85,0.6 -0.1,0.35 -0.08,0.74 -0.08,0.83 v 1.98 h -0.73 v -2.28 c 0,-0.67 -0.15,-1.13 -0.85,-1.13 -0.3,0 -0.73,0.12 -0.95,0.63 -0.08,0.2 -0.05,0.71 -0.05,0.8 v 1.98 h -0.73 v -3.85 h 0.71 z"
   id="path12"
   inkscape:connector-curvature="0" />
	<path
   d="m 416.54,306.29 h -0.74 l 0.58,-1.49 -1.6,-3.83 h 0.81 l 1.2,3.04 1.23,-3.04 h 0.78 z"
   id="path14"
   inkscape:connector-curvature="0" />
	<path
   d="m 424.32,302.89 c 0,1.2 -0.65,2.04 -1.92,2.04 -1.27,0 -1.92,-0.84 -1.92,-2.04 0,-1.2 0.65,-2.04 1.92,-2.04 1.27,0 1.92,0.85 1.92,2.04 z m -1.92,1.51 c 0.87,0 1.15,-0.69 1.15,-1.51 0,-0.82 -0.28,-1.51 -1.15,-1.51 -0.87,0 -1.15,0.69 -1.15,1.51 0,0.82 0.29,1.51 1.15,1.51 z"
   id="path16"
   inkscape:connector-curvature="0" />
	<path
   d="m 425.69,304.82 v -3.34 h -0.75 v -0.51 h 0.75 v -0.74 c 0.02,-0.84 0.66,-1.07 1.2,-1.07 0.18,0 0.34,0.05 0.52,0.08 v 0.61 c -0.12,-0.01 -0.25,-0.02 -0.37,-0.02 -0.41,0 -0.65,0.11 -0.63,0.53 v 0.61 h 0.89 v 0.51 h -0.89 v 3.34 z"
   id="path18"
   inkscape:connector-curvature="0" />
	<path
   d="m 428.99,304.82 2.33,-5.54 h 0.82 l 2.24,5.54 h -0.84 l -0.6,-1.44 h -2.57 l -0.6,1.44 z m 1.65,-2.1 h 2.06 l -1,-2.68 z"
   id="path20"
   inkscape:connector-curvature="0" />
	<path
   d="m 435.98,304.82 h -0.73 v -3.85 h 0.73 v 0.74 H 436 c 0.11,-0.53 0.6,-0.8 1.13,-0.8 0.09,0 0.17,0.01 0.25,0.01 v 0.69 c -0.1,-0.04 -0.21,-0.04 -0.31,-0.04 -0.92,0.03 -1.08,0.52 -1.08,1.33 v 1.92 z"
   id="path22"
   inkscape:connector-curvature="0" />
	<path
   d="m 438.33,300.97 v -0.82 l 0.73,-0.23 v 1.05 l 0.89,-0.02 v 0.54 l -0.89,-0.01 v 2.48 c 0,0.28 0.21,0.41 0.48,0.41 0.11,0 0.27,-0.02 0.38,-0.05 v 0.56 c -0.17,0.01 -0.33,0.05 -0.5,0.05 -0.18,0 -0.31,-0.01 -0.49,-0.04 -0.11,-0.02 -0.31,-0.08 -0.43,-0.25 -0.13,-0.18 -0.17,-0.2 -0.17,-0.71 v -2.45 l -0.66,0.01 v -0.54 z"
   id="path24"
   inkscape:connector-curvature="0" />
	<path
   d="m 444.91,302.44 c 0,-0.67 -0.04,-1.06 -0.81,-1.06 -0.37,0 -0.71,0.21 -0.72,0.61 h -0.77 c 0.04,-0.84 0.7,-1.14 1.46,-1.14 0.79,0 1.57,0.24 1.57,1.31 V 304 c 0,0.17 0.01,0.49 0.03,0.81 h -0.49 c -0.07,0 -0.2,0.04 -0.21,-0.05 -0.01,-0.18 -0.03,-0.34 -0.04,-0.52 h -0.02 c -0.24,0.48 -0.67,0.69 -1.2,0.69 -0.67,0 -1.34,-0.35 -1.34,-1.1 0,-1.08 0.96,-1.4 1.87,-1.4 h 0.67 z m -0.73,0.51 c -0.44,0.02 -1.04,0.18 -1.04,0.74 0,0.48 0.33,0.71 0.76,0.71 0.86,0 1.02,-0.74 1,-1.46 h -0.72 z"
   id="path26"
   inkscape:connector-curvature="0" />
	<path
   d="m 447.56,301.54 h 0.02 c 0.25,-0.48 0.78,-0.68 1.17,-0.68 0.27,0 1.46,0.07 1.46,1.3 v 2.66 h -0.73 v -2.42 c 0,-0.64 -0.27,-0.98 -0.88,-0.98 0,0 -0.4,-0.02 -0.7,0.28 -0.11,0.11 -0.31,0.28 -0.31,1.03 v 2.09 h -0.73 v -3.85 h 0.71 v 0.57 z"
   id="path28"
   inkscape:connector-curvature="0" />
	<path
   d="m 454.12,299.28 h 0.73 v 4.85 c 0,0.23 0.02,0.46 0.04,0.68 h -0.74 l -0.02,-0.58 v -0.04 h -0.02 c -0.26,0.54 -0.77,0.73 -1.33,0.73 -1.14,0 -1.59,-1.05 -1.59,-2.04 0,-1.04 0.53,-2.04 1.72,-2.04 0.49,0 0.97,0.18 1.2,0.64 h 0.02 v -2.2 z m -1.08,5.15 c 0.88,0 1.09,-0.82 1.09,-1.54 0,-0.7 -0.26,-1.53 -1.09,-1.53 -0.87,0 -1.09,0.81 -1.09,1.53 0,0.72 0.27,1.54 1.09,1.54 z"
   id="path30"
   inkscape:connector-curvature="0" />
	<path
   d="m 457.64,299.28 h 1.84 c 0.51,0.01 1.06,0.05 1.5,0.34 0.8,0.51 1.17,1.38 1.17,2.43 0,1.05 -0.37,1.92 -1.17,2.43 -0.45,0.28 -0.99,0.32 -1.5,0.34 h -1.84 z m 0.77,4.88 h 1.12 c 0.77,0 1.19,-0.31 1.4,-0.63 0.33,-0.48 0.42,-0.97 0.42,-1.48 0,-0.51 -0.09,-1 -0.42,-1.48 -0.21,-0.31 -0.63,-0.63 -1.4,-0.63 h -1.12 z"
   id="path32"
   inkscape:connector-curvature="0" />
	<path
   d="m 463.74,303.03 c -0.05,0.67 0.22,1.37 0.96,1.37 0.57,0 0.85,-0.22 0.94,-0.78 h 0.77 c -0.12,0.87 -0.79,1.31 -1.71,1.31 -1.23,0 -1.73,-0.87 -1.73,-2.01 0,-1.13 0.57,-2.07 1.79,-2.07 1.15,0.02 1.69,0.75 1.69,1.82 v 0.36 z m 1.95,-0.51 c 0.01,-0.64 -0.28,-1.14 -0.98,-1.14 -0.61,0 -0.96,0.51 -0.96,1.14 z"
   id="path34"
   inkscape:connector-curvature="0" />
	<path
   d="m 468.84,300.85 c 0.73,0 1.55,0.31 1.5,1.18 h -0.77 c 0.03,-0.49 -0.35,-0.65 -0.77,-0.65 -0.39,0 -0.71,0.18 -0.71,0.61 0,0.43 0.66,0.46 0.94,0.54 0.65,0.21 1.4,0.29 1.4,1.16 0,0.94 -0.92,1.23 -1.71,1.23 -0.8,0 -1.48,-0.37 -1.47,-1.26 h 0.77 c 0.02,0.48 0.34,0.73 0.78,0.73 0.43,0 0.87,-0.17 0.87,-0.67 0,-0.86 -2.34,-0.21 -2.34,-1.72 0,-0.79 0.81,-1.15 1.51,-1.15 z"
   id="path36"
   inkscape:connector-curvature="0" />
	<path
   d="m 471.47,299.28 h 0.87 v 0.79 h -0.87 z m 0.07,5.54 v -3.85 h 0.73 v 3.85 z"
   id="path38"
   inkscape:connector-curvature="0" />
	<path
   d="m 476.38,300.97 h 0.75 c -0.02,0.23 -0.05,0.46 -0.05,0.69 v 2.71 c 0,1.41 -0.61,1.99 -2.02,1.99 -0.83,0 -1.42,-0.35 -1.43,-1.24 h 0.77 c 0.03,0.51 0.38,0.71 0.9,0.71 1.04,0 1.04,-0.86 1.06,-1.72 h -0.02 c -0.23,0.46 -0.79,0.65 -1.26,0.65 -1.17,0 -1.64,-0.83 -1.64,-1.91 0,-1.11 0.62,-1.99 1.79,-1.99 0.38,0 0.79,0.15 1.03,0.51 0.02,0.02 0.12,0.24 0.12,0.18 z m -1.1,3.25 c 0.79,0 1.08,-0.67 1.08,-1.42 0,-0.74 -0.29,-1.42 -1.08,-1.42 -0.85,0 -1.08,0.81 -1.08,1.42 0,0.61 0.23,1.42 1.08,1.42 z"
   id="path40"
   inkscape:connector-curvature="0" />
	<path
   d="m 478.9,301.54 h 0.02 c 0.25,-0.48 0.78,-0.68 1.17,-0.68 0.27,0 1.46,0.07 1.46,1.3 v 2.66 h -0.73 v -2.42 c 0,-0.64 -0.27,-0.98 -0.88,-0.98 0,0 -0.4,-0.02 -0.71,0.28 -0.11,0.11 -0.31,0.28 -0.31,1.03 v 2.09 h -0.73 v -3.85 h 0.71 z"
   id="path42"
   inkscape:connector-curvature="0" />
	<rect
   x="343.23999"
   y="283.54999"
   width="0.97000003"
   height="28.35"
   id="rect44" />
	<path
   d="m 328.67,292.98 c 0.46,-0.65 1.51,-2.68 4.6,-2.68 2.17,0 3.33,0.87 3.79,1.3 1.33,1.3 1.41,3.17 1.41,4.22 v 9 h -5.57 v -7.91 c 0,-0.16 -0.03,-2.01 -1.89,-2.01 -1.97,0 -2.03,1.81 -2.03,2.3 v 7.62 h -5.57 v -14.16 h 5.27 v 2.32 z"
   id="path46"
   inkscape:connector-curvature="0" />
	<path
   d="m 368.93,290.33 c -1.04,0 -1.89,0.85 -1.89,1.89 0,1.04 0.85,1.89 1.89,1.89 0.96,0 1.38,-0.69 1.39,-0.66 0.54,1.65 -2.33,10.21 -6.25,10.21 -1.27,0 -1.66,-1.03 -1.66,-2.36 0,-1.57 0.45,-3.18 1.03,-5.35 0.6,-2.15 1.15,-4.2 1.45,-5.3 h -3.78 c -0.52,1.86 -4.21,12.74 -7.35,12.74 -0.39,0 -0.82,-0.42 -0.82,-1.18 0,-0.42 0.36,-1.9 0.54,-2.45 l 1.24,-4.23 c 0.27,-0.88 0.66,-2.03 0.66,-2.87 0,-1.48 -1.03,-2.33 -2.24,-2.33 -3.42,0 -4.84,3.05 -5.54,4.29 l 0.58,0.36 c 0.33,-0.54 1.84,-3.11 2.87,-3.11 0.15,0 0.27,0.18 0.27,0.73 0,0.36 -0.21,1.18 -0.42,1.93 l -1.3,4.29 c -0.21,0.79 -0.73,2.3 -0.73,3.39 0,2 1.51,2.99 2.84,2.99 4.85,0 6.96,-5.87 7.65,-7.56 l 0.06,0.06 c -0.09,0.33 -0.51,2.12 -0.51,3.02 0,2.6 1.16,4.47 3.7,4.47 7.39,0.02 11.4,-14.86 6.32,-14.86 z"
   id="path48"
   inkscape:connector-curvature="0" />
	<path
   d="m 389.59,293.99 c 0.02,1.43 -0.73,2.31 -2.23,2.31 -1.5,0 -2.25,-0.88 -2.23,-2.31 v -3.34 h 0.77 v 3.53 c 0.02,0.95 0.59,1.46 1.46,1.46 0.87,0 1.44,-0.51 1.46,-1.46 v -3.53 h 0.77 z"
   id="path50"
   inkscape:connector-curvature="0" />
	<path
   d="m 391.63,292.9 h 0.02 c 0.24,-0.48 0.78,-0.68 1.16,-0.68 0.27,0 1.46,0.07 1.46,1.3 v 2.66 h -0.73 v -2.42 c 0,-0.64 -0.27,-0.98 -0.88,-0.98 0,0 -0.4,-0.02 -0.71,0.28 -0.11,0.11 -0.31,0.28 -0.31,1.03 v 2.09 h -0.73 v -3.85 h 0.71 v 0.57 z"
   id="path52"
   inkscape:connector-curvature="0" />
	<path
   d="m 395.62,290.65 h 0.87 v 0.79 h -0.87 z m 0.07,5.53 v -3.85 h 0.73 v 3.85 z"
   id="path54"
   inkscape:connector-curvature="0" />
	<path
   d="m 398.93,296.18 -1.61,-3.85 h 0.81 l 1.23,3.05 1.2,-3.05 h 0.8 l -1.69,3.85 z"
   id="path56"
   inkscape:connector-curvature="0" />
	<path
   d="m 402.57,294.39 c -0.05,0.67 0.22,1.37 0.97,1.37 0.57,0 0.85,-0.22 0.94,-0.78 h 0.77 c -0.12,0.87 -0.79,1.31 -1.71,1.31 -1.23,0 -1.72,-0.87 -1.72,-2.01 0,-1.13 0.57,-2.07 1.79,-2.07 1.15,0.02 1.7,0.75 1.7,1.82 v 0.36 z m 1.95,-0.5 c 0.02,-0.64 -0.28,-1.14 -0.98,-1.14 -0.61,0 -0.97,0.51 -0.97,1.14 z"
   id="path58"
   inkscape:connector-curvature="0" />
	<path
   d="m 407.08,296.18 h -0.73 v -3.85 h 0.73 v 0.74 h 0.02 c 0.11,-0.53 0.6,-0.8 1.13,-0.8 0.09,0 0.17,0.01 0.25,0.01 v 0.69 c -0.1,-0.04 -0.21,-0.04 -0.31,-0.04 -0.92,0.03 -1.08,0.52 -1.08,1.33 v 1.92 z"
   id="path60"
   inkscape:connector-curvature="0" />
	<path
   d="m 410.5,292.22 c 0.73,0 1.55,0.31 1.5,1.18 h -0.77 c 0.03,-0.49 -0.35,-0.65 -0.77,-0.65 -0.39,0 -0.71,0.18 -0.71,0.61 0,0.43 0.66,0.46 0.94,0.54 0.65,0.21 1.4,0.29 1.4,1.16 0,0.94 -0.92,1.23 -1.71,1.23 -0.8,0 -1.48,-0.37 -1.47,-1.26 h 0.77 c 0.02,0.48 0.34,0.73 0.78,0.73 0.43,0 0.87,-0.17 0.87,-0.67 0,-0.86 -2.34,-0.21 -2.34,-1.72 0,-0.79 0.82,-1.15 1.51,-1.15 z"
   id="path62"
   inkscape:connector-curvature="0" />
	<path
   d="m 413.02,290.65 h 0.87 v 0.79 h -0.87 z m 0.07,5.53 v -3.85 h 0.73 v 3.85 z"
   id="path64"
   inkscape:connector-curvature="0" />
	<path
   d="m 415.32,292.33 v -0.82 l 0.73,-0.23 v 1.05 l 0.89,-0.02 v 0.54 l -0.89,-0.01 v 2.48 c 0,0.28 0.21,0.41 0.48,0.41 0.11,0 0.27,-0.02 0.38,-0.05 v 0.56 c -0.17,0.01 -0.33,0.05 -0.5,0.05 -0.18,0 -0.31,-0.01 -0.49,-0.04 -0.11,-0.02 -0.31,-0.08 -0.43,-0.25 -0.13,-0.18 -0.17,-0.2 -0.17,-0.71 v -2.45 l -0.66,0.01 v -0.54 z"
   id="path66"
   inkscape:connector-curvature="0" />
	<path
   d="m 419.1,297.65 h -0.74 l 0.58,-1.49 -1.6,-3.83 h 0.81 l 1.2,3.04 1.23,-3.04 h 0.78 z"
   id="path68"
   inkscape:connector-curvature="0" />
	<path
   d="m 426.88,294.26 c 0,1.2 -0.65,2.04 -1.92,2.04 -1.27,0 -1.92,-0.84 -1.92,-2.04 0,-1.2 0.65,-2.04 1.92,-2.04 1.27,0 1.92,0.84 1.92,2.04 z m -1.92,1.51 c 0.87,0 1.15,-0.69 1.15,-1.51 0,-0.82 -0.28,-1.51 -1.15,-1.51 -0.87,0 -1.15,0.69 -1.15,1.51 0,0.82 0.28,1.51 1.15,1.51 z"
   id="path70"
   inkscape:connector-curvature="0" />
	<path
   d="m 428.25,296.18 v -3.34 h -0.75 v -0.51 h 0.75 v -0.74 c 0.02,-0.84 0.66,-1.07 1.2,-1.07 0.18,0 0.35,0.05 0.52,0.08 v 0.61 c -0.12,-0.01 -0.25,-0.02 -0.37,-0.02 -0.41,0 -0.65,0.11 -0.63,0.53 v 0.61 h 0.89 v 0.51 h -0.89 v 3.34 z"
   id="path72"
   inkscape:connector-curvature="0" />
	<path
   d="m 431.55,296.18 2.33,-5.54 h 0.82 l 2.24,5.54 h -0.84 l -0.6,-1.44 h -2.57 l -0.6,1.44 z m 1.65,-2.1 h 2.06 l -1,-2.68 z"
   id="path74"
   inkscape:connector-curvature="0" />
	<path
   d="m 437.76,293.02 c -0.01,-0.23 -0.02,-0.46 -0.04,-0.69 h 0.74 l 0.02,0.61 h 0.01 c 0.22,-0.55 0.71,-0.73 1.31,-0.73 1.08,0 1.62,1 1.62,2.04 0,0.99 -0.46,2.04 -1.85,2.04 -0.31,0 -0.82,-0.15 -1.07,-0.55 h -0.02 v 1.91 h -0.73 v -4.63 z m 1.81,-0.27 c -0.83,0 -1.09,0.81 -1.09,1.51 0,0.72 0.21,1.51 1.02,1.51 0.89,0 1.16,-0.79 1.16,-1.51 0,-0.72 -0.21,-1.51 -1.09,-1.51 z"
   id="path76"
   inkscape:connector-curvature="0" />
	<path
   d="m 442.52,293.02 c -0.01,-0.23 -0.02,-0.46 -0.04,-0.69 h 0.74 l 0.02,0.61 h 0.01 c 0.22,-0.55 0.71,-0.73 1.31,-0.73 1.08,0 1.62,1 1.62,2.04 0,0.99 -0.46,2.04 -1.85,2.04 -0.31,0 -0.82,-0.15 -1.07,-0.55 h -0.02 v 1.91 h -0.73 v -4.63 z m 1.81,-0.27 c -0.83,0 -1.09,0.81 -1.09,1.51 0,0.72 0.21,1.51 1.02,1.51 0.89,0 1.16,-0.79 1.16,-1.51 0,-0.72 -0.21,-1.51 -1.09,-1.51 z"
   id="path78"
   inkscape:connector-curvature="0" />
	<path
   d="m 447.32,296.18 v -5.54 h 0.73 v 5.54 z"
   id="path80"
   inkscape:connector-curvature="0" />
	<path
   d="m 449.46,290.65 h 0.87 v 0.79 h -0.87 z m 0.07,5.53 v -3.85 h 0.73 v 3.85 z"
   id="path82"
   inkscape:connector-curvature="0" />
	<path
   d="m 452.08,294.39 c -0.05,0.67 0.22,1.37 0.96,1.37 0.57,0 0.85,-0.22 0.94,-0.78 h 0.77 c -0.12,0.87 -0.79,1.31 -1.71,1.31 -1.23,0 -1.72,-0.87 -1.72,-2.01 0,-1.13 0.57,-2.07 1.79,-2.07 1.15,0.02 1.69,0.75 1.69,1.82 v 0.36 z m 1.95,-0.5 c 0.01,-0.64 -0.28,-1.14 -0.98,-1.14 -0.61,0 -0.96,0.51 -0.96,1.14 z"
   id="path84"
   inkscape:connector-curvature="0" />
	<path
   d="m 458.5,290.65 h 0.73 v 4.85 c 0,0.23 0.02,0.46 0.04,0.68 h -0.74 l -0.02,-0.58 v -0.04 h -0.02 c -0.26,0.54 -0.77,0.73 -1.33,0.73 -1.14,0 -1.59,-1.05 -1.59,-2.04 0,-1.04 0.53,-2.04 1.73,-2.04 0.49,0 0.97,0.18 1.2,0.64 h 0.02 v -2.2 z m -1.09,5.14 c 0.88,0 1.09,-0.82 1.09,-1.54 0,-0.7 -0.26,-1.53 -1.09,-1.53 -0.87,0 -1.09,0.81 -1.09,1.53 0,0.72 0.27,1.54 1.09,1.54 z"
   id="path86"
   inkscape:connector-curvature="0" />
	<path
   d="m 462.93,294.56 c 0.01,0.78 0.47,1.07 1.21,1.07 0.63,0 1.39,-0.18 1.39,-0.96 0,-0.54 -0.44,-0.76 -0.9,-0.85 -0.91,-0.2 -2.43,-0.41 -2.43,-1.65 0,-1.2 1.1,-1.65 2.13,-1.65 0.94,0 1.87,0.42 1.87,1.5 h -0.8 c -0.03,-0.62 -0.55,-0.84 -1.1,-0.84 -0.54,0 -1.29,0.2 -1.29,0.86 0,0.63 0.45,0.67 0.93,0.82 1.02,0.33 2.41,0.33 2.41,1.73 0,1.26 -1.13,1.7 -2.25,1.7 -1.16,0 -2,-0.49 -1.97,-1.73 z"
   id="path88"
   inkscape:connector-curvature="0" />
	<path
   d="m 469.55,293.57 c -0.04,-0.48 -0.27,-0.82 -0.79,-0.82 -0.7,0 -0.97,0.61 -0.97,1.51 0,0.91 0.27,1.51 0.97,1.51 0.48,0 0.78,-0.31 0.82,-0.87 h 0.73 c -0.06,0.87 -0.71,1.4 -1.56,1.4 -1.23,0 -1.73,-0.87 -1.73,-2.01 0,-1.13 0.57,-2.07 1.79,-2.07 0.81,0 1.43,0.51 1.46,1.35 z"
   id="path90"
   inkscape:connector-curvature="0" />
	<path
   d="m 471.12,290.65 h 0.87 v 0.79 h -0.87 z m 0.07,5.53 v -3.85 h 0.73 v 3.85 z"
   id="path92"
   inkscape:connector-curvature="0" />
	<path
   d="m 473.85,294.39 c -0.05,0.67 0.22,1.37 0.97,1.37 0.57,0 0.85,-0.22 0.94,-0.78 h 0.77 c -0.12,0.87 -0.79,1.31 -1.71,1.31 -1.23,0 -1.72,-0.87 -1.72,-2.01 0,-1.13 0.57,-2.07 1.79,-2.07 1.15,0.02 1.7,0.75 1.7,1.82 v 0.36 z m 1.95,-0.5 c 0.02,-0.64 -0.28,-1.14 -0.98,-1.14 -0.61,0 -0.97,0.51 -0.97,1.14 z"
   id="path94"
   inkscape:connector-curvature="0" />
	<path
   d="m 478.44,292.9 h 0.02 c 0.25,-0.48 0.78,-0.68 1.16,-0.68 0.27,0 1.46,0.07 1.46,1.3 v 2.66 h -0.73 v -2.42 c 0,-0.64 -0.27,-0.98 -0.88,-0.98 0,0 -0.4,-0.02 -0.71,0.28 -0.11,0.11 -0.31,0.28 -0.31,1.03 v 2.09 h -0.73 v -3.85 h 0.71 v 0.57 z"
   id="path96"
   inkscape:connector-curvature="0" />
	<path
   d="m 484.5,293.57 c -0.04,-0.48 -0.27,-0.82 -0.79,-0.82 -0.7,0 -0.97,0.61 -0.97,1.51 0,0.91 0.27,1.51 0.97,1.51 0.48,0 0.78,-0.31 0.82,-0.87 h 0.73 c -0.06,0.87 -0.71,1.4 -1.56,1.4 -1.23,0 -1.72,-0.87 -1.72,-2.01 0,-1.13 0.57,-2.07 1.79,-2.07 0.81,0 1.43,0.51 1.46,1.35 z"
   id="path98"
   inkscape:connector-curvature="0" />
	<path
   d="m 486.78,294.39 c -0.05,0.67 0.22,1.37 0.97,1.37 0.57,0 0.85,-0.22 0.94,-0.78 h 0.77 c -0.12,0.87 -0.79,1.31 -1.71,1.31 -1.23,0 -1.72,-0.87 -1.72,-2.01 0,-1.13 0.57,-2.07 1.79,-2.07 1.15,0.02 1.7,0.75 1.7,1.82 v 0.36 z m 1.95,-0.5 c 0.02,-0.64 -0.28,-1.14 -0.98,-1.14 -0.61,0 -0.97,0.51 -0.97,1.14 z"
   id="path100"
   inkscape:connector-curvature="0" />
	<path
   d="m 491.88,292.22 c 0.73,0 1.55,0.31 1.5,1.18 h -0.77 c 0.03,-0.49 -0.34,-0.65 -0.77,-0.65 -0.39,0 -0.71,0.18 -0.71,0.61 0,0.43 0.66,0.46 0.94,0.54 0.65,0.21 1.4,0.29 1.4,1.16 0,0.94 -0.92,1.23 -1.71,1.23 -0.81,0 -1.48,-0.37 -1.47,-1.26 h 0.77 c 0.02,0.48 0.34,0.73 0.78,0.73 0.43,0 0.87,-0.17 0.87,-0.67 0,-0.86 -2.34,-0.21 -2.34,-1.72 0,-0.79 0.81,-1.15 1.51,-1.15 z"
   id="path102"
   inkscape:connector-curvature="0" />
	<path
   d="m 532.09,290.65 v 5.54 h -0.95 l -2.8,-4.7 h -0.01 v 4.7 h -0.68 v -5.54 h 1.05 l 2.7,4.58 h 0.02 v -4.58 z"
   id="path104"
   inkscape:connector-curvature="0" />
	<path
   d="m 536.96,294.26 c 0,1.2 -0.65,2.04 -1.92,2.04 -1.26,0 -1.92,-0.84 -1.92,-2.04 0,-1.2 0.65,-2.04 1.92,-2.04 1.27,0 1.92,0.84 1.92,2.04 z m -1.92,1.51 c 0.87,0 1.15,-0.69 1.15,-1.51 0,-0.82 -0.28,-1.51 -1.15,-1.51 -0.87,0 -1.15,0.69 -1.15,1.51 0,0.82 0.29,1.51 1.15,1.51 z"
   id="path106"
   inkscape:connector-curvature="0" />
	<path
   d="m 538.59,296.18 h -0.73 v -3.85 h 0.73 v 0.74 h 0.02 c 0.11,-0.53 0.6,-0.8 1.13,-0.8 0.09,0 0.17,0.01 0.25,0.01 v 0.69 c -0.1,-0.04 -0.21,-0.04 -0.31,-0.04 -0.92,0.03 -1.08,0.52 -1.08,1.33 v 1.92 z"
   id="path108"
   inkscape:connector-curvature="0" />
	<path
   d="m 541.02,292.33 v -0.82 l 0.73,-0.23 v 1.05 l 0.89,-0.02 v 0.54 l -0.89,-0.01 v 2.48 c 0,0.28 0.21,0.41 0.47,0.41 0.12,0 0.27,-0.02 0.38,-0.05 v 0.56 c -0.17,0.01 -0.33,0.05 -0.5,0.05 -0.18,0 -0.31,-0.01 -0.49,-0.04 -0.12,-0.02 -0.31,-0.08 -0.43,-0.25 -0.13,-0.18 -0.17,-0.2 -0.17,-0.71 v -2.45 l -0.66,0.01 v -0.54 z"
   id="path110"
   inkscape:connector-curvature="0" />
	<path
   d="m 543.61,296.18 v -5.54 h 0.73 v 2.2 h 0.02 c 0.28,-0.43 0.69,-0.63 1.25,-0.63 1,0 1.32,0.67 1.32,1.36 v 2.61 h -0.73 v -2.28 c 0,-0.67 -0.18,-1.11 -0.86,-1.13 -0.29,-0.01 -0.74,0.21 -0.87,0.54 -0.17,0.4 -0.12,0.67 -0.12,0.89 v 1.98 z"
   id="path112"
   inkscape:connector-curvature="0" />
	<path
   d="m 553.71,292.33 -1.36,3.85 h -0.83 l -0.9,-3.17 h -0.02 l -1,3.17 h -0.85 l -1.27,-3.85 h 0.79 l 0.93,3.1 h 0.02 l 0.96,-3.1 h 0.94 l 0.87,3.04 h 0.02 l 0.96,-3.04 z"
   id="path114"
   inkscape:connector-curvature="0" />
	<path
   d="m 554.88,294.39 c -0.05,0.67 0.22,1.37 0.97,1.37 0.57,0 0.85,-0.22 0.94,-0.78 h 0.77 c -0.12,0.87 -0.79,1.31 -1.71,1.31 -1.23,0 -1.72,-0.87 -1.72,-2.01 0,-1.13 0.57,-2.07 1.79,-2.07 1.15,0.02 1.69,0.75 1.69,1.82 v 0.36 z m 1.95,-0.5 c 0.02,-0.64 -0.28,-1.14 -0.98,-1.14 -0.61,0 -0.97,0.51 -0.97,1.14 z"
   id="path116"
   inkscape:connector-curvature="0" />
	<path
   d="m 559.98,292.22 c 0.73,0 1.55,0.31 1.5,1.18 h -0.77 c 0.03,-0.49 -0.34,-0.65 -0.77,-0.65 -0.39,0 -0.71,0.18 -0.71,0.61 0,0.43 0.66,0.46 0.94,0.54 0.65,0.21 1.4,0.29 1.4,1.16 0,0.94 -0.92,1.23 -1.71,1.23 -0.81,0 -1.48,-0.37 -1.47,-1.26 h 0.77 c 0.02,0.48 0.34,0.73 0.78,0.73 0.43,0 0.87,-0.17 0.87,-0.67 0,-0.86 -2.34,-0.21 -2.34,-1.72 0,-0.79 0.81,-1.15 1.51,-1.15 z"
   id="path118"
   inkscape:connector-curvature="0" />
	<path
   d="m 562.77,292.33 v -0.82 l 0.73,-0.23 v 1.05 l 0.89,-0.02 v 0.54 l -0.89,-0.01 v 2.48 c 0,0.28 0.21,0.41 0.48,0.41 0.11,0 0.27,-0.02 0.38,-0.05 v 0.56 c -0.17,0.01 -0.33,0.05 -0.5,0.05 -0.18,0 -0.31,-0.01 -0.49,-0.04 -0.11,-0.02 -0.31,-0.08 -0.43,-0.25 -0.13,-0.18 -0.17,-0.2 -0.17,-0.71 v -2.45 l -0.66,0.01 v -0.54 z"
   id="path120"
   inkscape:connector-curvature="0" />
	<path
   d="m 565.8,294.39 c -0.05,0.67 0.22,1.37 0.96,1.37 0.57,0 0.85,-0.22 0.94,-0.78 h 0.77 c -0.12,0.87 -0.79,1.31 -1.71,1.31 -1.23,0 -1.73,-0.87 -1.73,-2.01 0,-1.13 0.57,-2.07 1.79,-2.07 1.15,0.02 1.69,0.75 1.69,1.82 v 0.36 z m 1.94,-0.5 c 0.02,-0.64 -0.28,-1.14 -0.98,-1.14 -0.61,0 -0.96,0.51 -0.96,1.14 z"
   id="path122"
   inkscape:connector-curvature="0" />
	<path
   d="m 570.11,296.18 h -0.73 v -3.85 h 0.73 v 0.74 h 0.01 c 0.11,-0.53 0.6,-0.8 1.13,-0.8 0.09,0 0.17,0.01 0.25,0.01 v 0.69 c -0.1,-0.04 -0.21,-0.04 -0.31,-0.04 -0.92,0.03 -1.08,0.52 -1.08,1.33 z"
   id="path124"
   inkscape:connector-curvature="0" />
	<path
   d="M 572.98,292.9 H 573 c 0.25,-0.48 0.78,-0.68 1.16,-0.68 0.27,0 1.46,0.07 1.46,1.3 v 2.66 h -0.73 v -2.42 c 0,-0.64 -0.27,-0.98 -0.88,-0.98 0,0 -0.4,-0.02 -0.71,0.28 -0.11,0.11 -0.31,0.28 -0.31,1.03 v 2.09 h -0.73 v -3.85 h 0.71 v 0.57 z"
   id="path126"
   inkscape:connector-curvature="0" />
	<path
   d="m 579.28,294.56 c 0.02,0.78 0.47,1.07 1.21,1.07 0.63,0 1.4,-0.18 1.4,-0.96 0,-0.54 -0.45,-0.76 -0.9,-0.85 -0.91,-0.2 -2.43,-0.41 -2.43,-1.65 0,-1.2 1.1,-1.65 2.13,-1.65 0.94,0 1.87,0.42 1.87,1.5 h -0.8 c -0.03,-0.62 -0.55,-0.84 -1.1,-0.84 -0.54,0 -1.29,0.2 -1.29,0.86 0,0.63 0.44,0.67 0.93,0.82 1.02,0.33 2.41,0.33 2.41,1.73 0,1.26 -1.13,1.7 -2.25,1.7 -1.16,0 -2,-0.49 -1.97,-1.73 z"
   id="path128"
   inkscape:connector-curvature="0" />
	<path
   d="m 589.39,292.33 -1.36,3.85 h -0.83 l -0.9,-3.17 h -0.02 l -1,3.17 h -0.85 l -1.27,-3.85 h 0.79 l 0.93,3.1 h 0.02 l 0.96,-3.1 h 0.94 l 0.87,3.04 h 0.02 l 0.96,-3.04 z"
   id="path130"
   inkscape:connector-curvature="0" />
	<path
   d="m 590.03,290.65 h 0.87 v 0.79 h -0.87 z m 0.07,5.53 v -3.85 h 0.73 v 3.85 z"
   id="path132"
   inkscape:connector-curvature="0" />
	<path
   d="m 592.33,292.33 v -0.82 l 0.73,-0.23 v 1.05 l 0.89,-0.02 v 0.54 l -0.89,-0.01 v 2.48 c 0,0.28 0.21,0.41 0.48,0.41 0.11,0 0.27,-0.02 0.38,-0.05 v 0.56 c -0.17,0.01 -0.33,0.05 -0.5,0.05 -0.18,0 -0.31,-0.01 -0.49,-0.04 -0.11,-0.02 -0.31,-0.08 -0.43,-0.25 -0.13,-0.18 -0.17,-0.2 -0.17,-0.71 v -2.45 l -0.66,0.01 v -0.54 z"
   id="path134"
   inkscape:connector-curvature="0" />
	<path
   d="m 597.34,296.18 h -2.8 v -0.51 l 1.94,-2.84 h -1.91 v -0.51 h 2.69 v 0.51 l -1.93,2.84 h 2.01 z"
   id="path136"
   inkscape:connector-curvature="0" />
	<path
   d="m 598.68,294.39 c -0.05,0.67 0.22,1.37 0.97,1.37 0.57,0 0.85,-0.22 0.94,-0.78 h 0.77 c -0.12,0.87 -0.79,1.31 -1.71,1.31 -1.23,0 -1.72,-0.87 -1.72,-2.01 0,-1.13 0.57,-2.07 1.79,-2.07 1.15,0.02 1.7,0.75 1.7,1.82 v 0.36 z m 1.94,-0.5 c 0.02,-0.64 -0.28,-1.14 -0.98,-1.14 -0.61,0 -0.97,0.51 -0.97,1.14 z"
   id="path138"
   inkscape:connector-curvature="0" />
	<path
   d="m 603.18,296.18 h -0.73 v -3.85 h 0.73 v 0.74 h 0.02 c 0.11,-0.53 0.6,-0.8 1.13,-0.8 0.09,0 0.17,0.01 0.25,0.01 v 0.69 c -0.1,-0.04 -0.21,-0.04 -0.31,-0.04 -0.92,0.03 -1.08,0.52 -1.08,1.33 v 1.92 z"
   id="path140"
   inkscape:connector-curvature="0" />
	<path
   d="m 605.39,296.18 v -5.54 h 0.73 v 5.54 z"
   id="path142"
   inkscape:connector-curvature="0" />
	<path
   d="m 609.72,293.8 c 0,-0.67 -0.04,-1.06 -0.81,-1.06 -0.37,0 -0.71,0.21 -0.72,0.61 h -0.77 c 0.04,-0.84 0.7,-1.14 1.46,-1.14 0.79,0 1.57,0.24 1.57,1.31 v 1.84 c 0,0.17 0.01,0.49 0.03,0.81 h -0.49 c -0.07,0 -0.2,0.04 -0.21,-0.05 -0.02,-0.18 -0.03,-0.34 -0.04,-0.52 h -0.02 c -0.24,0.48 -0.67,0.69 -1.2,0.69 -0.67,0 -1.34,-0.35 -1.34,-1.1 0,-1.08 0.96,-1.4 1.87,-1.4 h 0.67 z m -0.73,0.51 c -0.45,0.02 -1.04,0.18 -1.04,0.74 0,0.48 0.33,0.71 0.76,0.71 0.86,0 1.02,-0.74 1,-1.46 h -0.72 z"
   id="path144"
   inkscape:connector-curvature="0" />
	<path
   d="m 612.41,292.9 h 0.02 c 0.25,-0.48 0.78,-0.68 1.17,-0.68 0.27,0 1.46,0.07 1.46,1.3 v 2.66 h -0.73 v -2.42 c 0,-0.64 -0.27,-0.98 -0.88,-0.98 0,0 -0.4,-0.02 -0.71,0.28 -0.11,0.11 -0.31,0.28 -0.31,1.03 v 2.09 h -0.73 v -3.85 h 0.71 z"
   id="path146"
   inkscape:connector-curvature="0" />
	<path
   d="m 618.89,290.65 h 0.73 v 4.85 c 0,0.23 0.02,0.46 0.04,0.68 h -0.74 l -0.02,-0.58 v -0.04 h -0.02 c -0.26,0.54 -0.77,0.73 -1.33,0.73 -1.14,0 -1.6,-1.05 -1.6,-2.04 0,-1.04 0.53,-2.04 1.72,-2.04 0.49,0 0.97,0.18 1.2,0.64 h 0.02 z m -1.08,5.14 c 0.88,0 1.09,-0.82 1.09,-1.54 0,-0.7 -0.26,-1.53 -1.09,-1.53 -0.87,0 -1.09,0.81 -1.09,1.53 0,0.72 0.27,1.54 1.09,1.54 z"
   id="path148"
   inkscape:connector-curvature="0" />
	<path
   d="m 510.33,296.18 2.33,-5.54 h 0.82 l 2.24,5.54 h -0.84 l -0.6,-1.44 h -2.57 l -0.6,1.44 z m 1.64,-2.1 h 2.06 l -1,-2.68 z"
   id="path150"
   inkscape:connector-curvature="0" />
	<path
   d="m 517.31,296.18 h -0.73 v -3.85 h 0.73 v 0.74 h 0.02 c 0.11,-0.53 0.6,-0.8 1.13,-0.8 0.09,0 0.17,0.01 0.25,0.01 v 0.69 c -0.1,-0.04 -0.21,-0.04 -0.31,-0.04 -0.92,0.03 -1.08,0.52 -1.08,1.33 v 1.92 z"
   id="path152"
   inkscape:connector-curvature="0" />
	<path
   d="m 519.66,292.33 v -0.82 l 0.73,-0.23 v 1.05 l 0.89,-0.02 v 0.54 l -0.89,-0.01 v 2.48 c 0,0.28 0.21,0.41 0.48,0.41 0.11,0 0.27,-0.02 0.38,-0.05 v 0.56 c -0.17,0.01 -0.33,0.05 -0.5,0.05 -0.18,0 -0.31,-0.01 -0.49,-0.04 -0.11,-0.02 -0.31,-0.08 -0.43,-0.25 -0.13,-0.18 -0.17,-0.2 -0.17,-0.71 v -2.45 l -0.66,0.01 v -0.54 z"
   id="path154"
   inkscape:connector-curvature="0" />
	<path
   d="m 498.24,293.8 c 0,-0.67 -0.04,-1.06 -0.81,-1.06 -0.37,0 -0.71,0.21 -0.72,0.61 h -0.77 c 0.04,-0.84 0.7,-1.14 1.46,-1.14 0.79,0 1.57,0.24 1.57,1.31 v 1.84 c 0,0.17 0.01,0.49 0.03,0.81 h -0.49 c -0.07,0 -0.2,0.04 -0.21,-0.05 -0.01,-0.18 -0.03,-0.34 -0.04,-0.52 h -0.02 c -0.24,0.48 -0.67,0.69 -1.2,0.69 -0.67,0 -1.34,-0.35 -1.34,-1.1 0,-1.08 0.96,-1.4 1.87,-1.4 h 0.67 z m -0.73,0.51 c -0.44,0.02 -1.04,0.18 -1.04,0.74 0,0.48 0.33,0.71 0.76,0.71 0.86,0 1.02,-0.74 1,-1.46 h -0.72 z"
   id="path156"
   inkscape:connector-curvature="0" />
	<path
   d="m 500.89,292.9 h 0.02 c 0.25,-0.48 0.78,-0.68 1.17,-0.68 0.27,0 1.46,0.07 1.46,1.3 v 2.66 h -0.73 v -2.42 c 0,-0.64 -0.27,-0.98 -0.88,-0.98 0,0 -0.4,-0.02 -0.71,0.28 -0.11,0.11 -0.31,0.28 -0.31,1.03 v 2.09 h -0.73 v -3.85 h 0.71 z"
   id="path158"
   inkscape:connector-curvature="0" />
	<path
   d="m 507.44,290.64 h 0.73 v 4.85 c 0,0.23 0.02,0.46 0.04,0.68 h -0.74 l -0.02,-0.58 v -0.04 h -0.02 c -0.26,0.54 -0.77,0.73 -1.33,0.73 -1.14,0 -1.59,-1.05 -1.59,-2.04 0,-1.04 0.53,-2.04 1.72,-2.04 0.49,0 0.97,0.18 1.2,0.64 h 0.02 v -2.2 z m -1.08,5.15 c 0.88,0 1.09,-0.82 1.09,-1.54 0,-0.7 -0.26,-1.53 -1.09,-1.53 -0.87,0 -1.09,0.81 -1.09,1.53 0,0.72 0.27,1.54 1.09,1.54 z"
   id="path160"
   inkscape:connector-curvature="0" />
	<path
   d="m 523.34,292.22 c 0.73,0 1.55,0.31 1.49,1.18 h -0.77 c 0.03,-0.49 -0.35,-0.65 -0.77,-0.65 -0.39,0 -0.71,0.18 -0.71,0.61 0,0.43 0.66,0.46 0.94,0.54 0.65,0.21 1.4,0.29 1.4,1.16 0,0.94 -0.92,1.23 -1.71,1.23 -0.8,0 -1.48,-0.37 -1.47,-1.26 h 0.77 c 0.02,0.48 0.34,0.73 0.78,0.73 0.43,0 0.87,-0.17 0.87,-0.67 0,-0.86 -2.34,-0.21 -2.34,-1.72 0.02,-0.79 0.83,-1.15 1.52,-1.15 z"
   id="path162"
   inkscape:connector-curvature="0" />
</g>
</svg>