<?xml version="1.0" encoding="UTF-8" standalone="no"?>
<svg
   xmlns:dc="http://purl.org/dc/elements/1.1/"
   xmlns:cc="http://creativecommons.org/ns#"
   xmlns:rdf="http://www.w3.org/1999/02/22-rdf-syntax-ns#"
   xmlns:svg="http://www.w3.org/2000/svg"
   xmlns="http://www.w3.org/2000/svg"
   id="svg6"
   version="1.1"
   height="48px"
   width="48px"
   fill="black"
   viewBox="0 0 24 24">
  <metadata
     id="metadata12">
    <rdf:RDF>
      <cc:Work
         rdf:about="">
        <dc:format>image/svg+xml</dc:format>
        <dc:type
           rdf:resource="http://purl.org/dc/dcmitype/StillImage" />
        <dc:title></dc:title>
      </cc:Work>
    </rdf:RDF>
  </metadata>
  <defs
     id="defs10" />
  <path
     id="path2"
     fill="none"
     d="M0 0h24v24H0V0z" />
  <path
     id="path4"
     d="M 15,14.251682 14.573347,14.120763 14,13.5 c 0.674387,-0.896631 1.548224,-2.390076 1.53259,-4 C 15.5,6.1440678 12.500036,3.5756919 9.4640454,3.5393187 6.1822034,3.5 3.6151921,5.9994876 3.557296,9.5179773 3.5,13 6.3601695,15.5 9.5210617,15.522963 11.131019,15.534658 12.426737,14.916441 13.566737,13.936441 L 14.104873,14.557458 14.230341,15 19.5,20.184386 20,19.5 Z M 9.5,14.575273 C 6.5,14.5 4.397261,12.497053 4.5325904,9.5719092 4.6747098,6.5 6.4999939,4.4218309 9.4820227,4.4606813 12.5,4.5 14.57614,6.6906036 14.539319,9.5 14.5,12.5 12.5,14.650546 9.5,14.575273 Z" />
</svg>
