<?xml version="1.0" encoding="UTF-8" standalone="no"?>
<svg
   xmlns:dc="http://purl.org/dc/elements/1.1/"
   xmlns:cc="http://creativecommons.org/ns#"
   xmlns:rdf="http://www.w3.org/1999/02/22-rdf-syntax-ns#"
   xmlns:svg="http://www.w3.org/2000/svg"
   xmlns="http://www.w3.org/2000/svg"
   id="svg4648"
   version="1.1"
   height="48px"
   width="48px"
   fill="black"
   viewBox="0 0 24 24">
  <metadata
     id="metadata4654">
    <rdf:RDF>
      <cc:Work
         rdf:about="">
        <dc:format>image/svg+xml</dc:format>
        <dc:type
           rdf:resource="http://purl.org/dc/dcmitype/StillImage" />
        <dc:title></dc:title>
      </cc:Work>
    </rdf:RDF>
  </metadata>
  <defs
     id="defs4652" />
  <path
     id="path4644"
     fill="none"
     d="M0 0h24v24H0V0z" />
  <path
     id="path4646"
     d="m 7.5,22 h 1 v 1 h -1 z M 12,12.491525 C 13.659985,12.484491 14.477458,11.65994 14.491525,10 l 0.05085,-6 c 0.01407,-1.6599404 -0.869661,-2.5805085 -2.529661,-2.5805085 -1.66,0 -2.4626212,0.8823766 -2.4661018,2.5423729 L 9.5338983,10.025424 C 9.5308065,11.5 10,12.5 12,12.491525 Z M 10.580508,4 C 10.591057,3 11,2.5 12.012712,2.5169492 13.000007,2.5334729 13.485201,3 13.483051,4.0127119 L 13.470339,10 C 13.468216,11 13,11.5 11.974576,11.521186 10.999978,11.541323 10.506669,11 10.516949,10.025424 Z M 11.5,22 h 1 v 1 h -1 z m 4,0 h 1 v 1 h -1 z m 3,-12 h -1 c 0,3 -2.74,5.1 -5.5,5.1 C 9.24,15.1 6.5,13 6.5,10 h -1 c 0,3.41 2.72,5.51 6,6 v 4 h 1 v -4 c 3.28,-0.49 6,-2.59 6,-6 z" />
</svg>
