<?xml version="1.0" encoding="UTF-8" standalone="no"?>
<svg
   xmlns:dc="http://purl.org/dc/elements/1.1/"
   xmlns:cc="http://creativecommons.org/ns#"
   xmlns:rdf="http://www.w3.org/1999/02/22-rdf-syntax-ns#"
   xmlns:svg="http://www.w3.org/2000/svg"
   xmlns="http://www.w3.org/2000/svg"
   id="svg6"
   version="1.1"
   height="48px"
   width="48px"
   fill="black"
   viewBox="0 0 24 24">
  <metadata
     id="metadata12">
    <rdf:RDF>
      <cc:Work
         rdf:about="">
        <dc:format>image/svg+xml</dc:format>
        <dc:type
           rdf:resource="http://purl.org/dc/dcmitype/StillImage" />
        <dc:title></dc:title>
      </cc:Work>
    </rdf:RDF>
  </metadata>
  <defs
     id="defs10" />
  <path
     id="path2"
     fill="none"
     d="M0 0h24v24H0V0z" />
  <path
     id="path4"
     d="m 21.5,18.5 h -5 v -4 h -3.675763 c -1.14,2.42 -3.0915251,4.029661 -5.8115251,4.029661 -3.86,0 -6.54237292,-2.618814 -6.54237292,-6.478814 0,-3.8599995 2.64423732,-6.5169487 6.50423732,-6.5169487 2.72,0 4.7250847,1.5461017 5.8750847,3.9661017 H 23.5 v 5 h -2 z m -4,-1 h 3 v -4 h 2 v -3 H 12.359492 l -0.05203,-0.182712 c -0.7,-1.9899999 -3.1847461,-3.787627 -5.2947461,-3.787627 -2.76,0 -5.5084746,2.7230509 -5.5084746,5.483051 0,2.76 2.7484746,5.521186 5.5084746,5.521186 2.11,0 4.5566101,-1.823051 5.2566101,-3.813051 L 12.334068,13.5 H 17.5 Z M 7,15 C 5.35,15 4,13.65 4,12 4,10.35 5.35,9 7,9 c 1.65,0 3,1.35 3,3 0,1.65 -1.35,3 -3,3 z M 7,9.9957627 C 5.7796637,10 5.0403378,10.779617 5.0211864,11.974576 5,13.296518 5.716231,14 7.0127119,14.029661 8.2712066,14.058453 9.0695326,13.499769 9.029661,11.961864 9,10.817797 8.2457624,9.9914371 7,9.9957627 Z" />
</svg>
